<svg xmlns="http://www.w3.org/2000/svg" width="50" height="50" viewBox="0 0 50 50"><path fill="#282e33" d="M34.54 19.54V15h-.59l-3.95.02.02 4.53zM24.71 29.42c2.6 0 4.72-2.11 4.72-4.71 0-1.02-.34-1.97-.9-2.74A4.7 4.7 0 0 0 20 24.71c0 2.6 2.11 4.71 4.71 4.71"/><path fill="#282e33" d="M37.89 33.21a5.18 5.18 0 0 1-5.17 5.18H16.29a5.18 5.18 0 0 1-5.17-5.18V16.79a5.19 5.19 0 0 1 5.17-5.18h16.43a5.19 5.19 0 0 1 5.17 5.18zM0 24.62a24.63 24.63 0 1 0 49.27 0 24.63 24.63 0 0 0-49.27 0z"/><path fill="#282e33" d="M32.1 24.75a7.33 7.33 0 0 1-14.64 0c0-.97.19-1.9.54-2.75h-4v10.96a2.57 2.57 0 0 0 2.57 2.57h16.42a2.57 2.57 0 0 0 2.57-2.57V22h-4c.34.85.54 1.78.54 2.75"/></svg>